<svg xmlns="http://www.w3.org/2000/svg" width="20" height="20" viewBox="0 0 20 20" fill="none">
<path fill-rule="evenodd" clip-rule="evenodd" d="M16.861 7.80295V15.9963C16.861 16.9463 16.0258 17.7775 14.8326 17.7775H5.52553C4.45164 17.7775 3.49707 16.9463 3.49707 15.9963V7.6842" fill="white"/>
<path d="M16.861 7.80319V15.9966C16.861 16.9465 16.0258 17.7777 14.8326 17.7777H5.52553C4.45164 17.7777 3.49707 16.9465 3.49707 15.9966V7.68445" stroke="#646ECB" stroke-width="1.30556" stroke-linecap="round" stroke-linejoin="round"/>
<path d="M1 7.21004L1.45775 8.10503L3.91549 9.00001L5.71127 7.24766L7.26761 8.80252L10 8.10503L11.8169 8.80252L14.5 8.10503L15.7676 9.00001L17.5 8.50001L19 7.22258L16.5 2.48288C16.5 2.48288 9.42253 1.89029 9.30282 2.08779C9.06338 2.08779 3.67606 2.48277 3.67606 2.48277L1 7.21004Z" fill="white"/>
<path fill-rule="evenodd" clip-rule="evenodd" d="M18.6505 6.85321L16.622 3.05338C16.3834 2.5784 15.7868 2.22217 15.3095 2.22217H9.94002H4.57057C3.97397 2.22217 3.49669 2.5784 3.25804 3.05338L1.22958 6.85321C0.275016 8.87187 5.40582 10.5343 5.64447 6.85321C5.88311 10.0593 9.94002 9.34685 9.94002 6.97196C10.0593 9.34685 13.9969 10.0593 14.3549 6.85321C14.5935 10.5343 19.605 8.87187 18.6505 6.85321Z" stroke="#646ECB" stroke-width="1.30556" stroke-linecap="round" stroke-linejoin="round"/>
<path fill-rule="evenodd" clip-rule="evenodd" d="M12.65 17.7777H7.75781V13.0279C7.75781 12.1967 8.47374 11.4843 9.30899 11.4843H11.2181C12.0534 11.4843 12.7693 12.1967 12.7693 13.0279V17.7777H12.65Z" stroke="#646ECB" stroke-width="1.30556" stroke-linecap="round" stroke-linejoin="round"/>
</svg>