<svg xmlns="http://www.w3.org/2000/svg" width="20" height="20" viewBox="0 0 20 20" fill="none">
<path fill-rule="evenodd" clip-rule="evenodd" d="M3.41943 6.88427V15.856C3.41943 16.9167 4.30263 17.7777 5.39057 17.7777H14.5775C15.6654 17.7777 16.5486 16.9167 16.5486 15.856V7.00593L10.0004 2.22241L3.41943 6.88427Z" fill="white"/>
<path d="M16.5486 7.00532V15.8554C16.5486 16.9172 15.6654 17.7771 14.5775 17.7771H5.39057C4.30263 17.7771 3.41943 16.9172 3.41943 15.8554V6.88367" stroke="#646ECB" stroke-width="1.3037" stroke-linecap="round" stroke-linejoin="round"/>
<path d="M1.11133 8.51294L9.28906 2.45854C9.71551 2.14318 10.2849 2.14318 10.7114 2.45972L18.8891 8.51294" stroke="#646ECB" stroke-width="1.3037" stroke-linecap="round" stroke-linejoin="round"/>
<path fill-rule="evenodd" clip-rule="evenodd" d="M12.4877 17.6019H7.51318V12.2621C7.51318 11.3928 8.23525 10.6888 9.12692 10.6888H10.8739C11.7656 10.6888 12.4877 11.3928 12.4877 12.2621V17.6019Z" stroke="#646ECB" stroke-width="1.3037" stroke-linecap="round" stroke-linejoin="round"/>
</svg>