<svg xmlns="http://www.w3.org/2000/svg" width="22" height="20" viewBox="0 0 22 20" fill="none">
<path d="M1 9.76072C1 8.56751 1.96729 7.60022 3.16049 7.60022H18.8395C20.0327 7.60022 21 8.56751 21 9.76071V12.1064C21 13.2996 20.0327 14.2669 18.8395 14.2669H3.16049C1.96729 14.2669 1 13.2996 1 12.1064V9.76072Z" fill="white"/>
<path fill-rule="evenodd" clip-rule="evenodd" d="M18.8395 8.58787H3.16049C2.51275 8.58787 1.98765 9.11297 1.98765 9.76072V12.1064C1.98765 12.7541 2.51275 13.2792 3.16049 13.2792H18.8395C19.4872 13.2792 20.0123 12.7541 20.0123 12.1064V9.76071C20.0123 9.11297 19.4872 8.58787 18.8395 8.58787ZM3.16049 7.60022C1.96729 7.60022 1 8.56751 1 9.76072V12.1064C1 13.2996 1.96729 14.2669 3.16049 14.2669H18.8395C20.0327 14.2669 21 13.2996 21 12.1064V9.76071C21 8.56751 20.0327 7.60022 18.8395 7.60022H3.16049Z" fill="#646ECB" stroke="#646ECB" stroke-width="0.2"/>
<path d="M8.77881 14.3885C8.77881 15.7693 7.65952 16.8885 6.27881 16.8885C4.8981 16.8885 3.77881 15.7693 3.77881 14.3885C3.77881 13.0078 4.8981 11.8885 6.27881 11.8885C7.65952 11.8885 8.77881 13.0078 8.77881 14.3885Z" fill="white"/>
<path fill-rule="evenodd" clip-rule="evenodd" d="M6.27881 15.9009C7.11405 15.9009 7.79115 15.2238 7.79115 14.3885C7.79115 13.5533 7.11405 12.8762 6.27881 12.8762C5.44356 12.8762 4.76646 13.5533 4.76646 14.3885C4.76646 15.2238 5.44356 15.9009 6.27881 15.9009ZM6.27881 16.8885C7.65952 16.8885 8.77881 15.7693 8.77881 14.3885C8.77881 13.0078 7.65952 11.8885 6.27881 11.8885C4.8981 11.8885 3.77881 13.0078 3.77881 14.3885C3.77881 15.7693 4.8981 16.8885 6.27881 16.8885Z" fill="#646ECB" stroke="#646ECB" stroke-width="0.2"/>
<path d="M18.7778 14.3885C18.7778 15.7693 17.6585 16.8885 16.2778 16.8885C14.8971 16.8885 13.7778 15.7693 13.7778 14.3885C13.7778 13.0078 14.8971 11.8885 16.2778 11.8885C17.6585 11.8885 18.7778 13.0078 18.7778 14.3885Z" fill="white"/>
<path fill-rule="evenodd" clip-rule="evenodd" d="M16.2778 15.9009C17.1131 15.9009 17.7902 15.2238 17.7902 14.3885C17.7902 13.5533 17.1131 12.8762 16.2778 12.8762C15.4426 12.8762 14.7655 13.5533 14.7655 14.3885C14.7655 15.2238 15.4426 15.9009 16.2778 15.9009ZM16.2778 16.8885C17.6585 16.8885 18.7778 15.7693 18.7778 14.3885C18.7778 13.0078 17.6585 11.8885 16.2778 11.8885C14.8971 11.8885 13.7778 13.0078 13.7778 14.3885C13.7778 15.7693 14.8971 16.8885 16.2778 16.8885Z" fill="#646ECB" stroke="#646ECB" stroke-width="0.2"/>
<path fill-rule="evenodd" clip-rule="evenodd" d="M10.7559 9.89983C10.7559 9.6271 10.977 9.40601 11.2497 9.40601H12.7869C13.0596 9.40601 13.2807 9.6271 13.2807 9.89983C13.2807 10.1726 13.0596 10.3937 12.7869 10.3937H11.2497C10.977 10.3937 10.7559 10.1726 10.7559 9.89983Z" fill="#646ECB"/>
<path d="M4.66531 4.0591C4.97167 3.41235 5.62326 3 6.3389 3H13.1041C13.8492 3 14.5217 3.44654 14.8108 4.13323L16.5559 8.27778H2.66699L4.66531 4.0591Z" fill="white"/>
<path fill-rule="evenodd" clip-rule="evenodd" d="M13.1041 3.98765H6.3389C6.00494 3.98765 5.70086 4.18008 5.55789 4.4819L4.22768 7.29012H15.0684L13.9005 4.51649C13.7656 4.19604 13.4518 3.98765 13.1041 3.98765ZM14.8108 4.13323C14.5217 3.44654 13.8492 3 13.1041 3H6.3389C5.62326 3 4.97167 3.41235 4.66531 4.0591L2.66699 8.27778H16.5559L14.8108 4.13323Z" fill="#646ECB" stroke="#646ECB" stroke-width="0.2"/>
<path fill-rule="evenodd" clip-rule="evenodd" d="M12.6975 8.21129C12.4611 8.07518 12.3803 7.77349 12.5169 7.53744L13.2855 6.20954C13.4221 5.97349 13.7245 5.89248 13.9608 6.02859C14.1971 6.1647 14.278 6.46639 14.1414 6.70244L13.3728 8.03035C13.2362 8.26639 12.9338 8.3474 12.6975 8.21129Z" fill="#646ECB"/>
<path fill-rule="evenodd" clip-rule="evenodd" d="M9.45476 3.27258C9.7275 3.27258 9.94859 3.49368 9.94859 3.76641L9.94859 7.8553C9.94859 8.12803 9.7275 8.34912 9.45476 8.34912C9.18203 8.34912 8.96094 8.12803 8.96094 7.8553L8.96094 3.76641C8.96094 3.49368 9.18203 3.27258 9.45476 3.27258Z" fill="#646ECB"/>
</svg>