<svg xmlns="http://www.w3.org/2000/svg" width="20" height="20" viewBox="0 0 20 20" fill="none">
<path fill-rule="evenodd" clip-rule="evenodd" d="M8.01329 1.79279C8.92582 0.735738 10.5749 0.735738 11.4867 1.79279L11.8752 2.23826C12.061 2.45721 12.3535 2.54782 12.6315 2.48742L13.2135 2.34396C14.5777 2.0193 15.9122 2.98574 16.0227 4.36745L16.0707 4.96393C16.0927 5.24329 16.2733 5.49245 16.5376 5.59815L17.0906 5.82466C18.3863 6.36074 18.8958 7.91611 18.1631 9.10151L17.8515 9.60738C17.7015 9.84899 17.7015 10.151 17.8515 10.3926L18.1631 10.8985C18.8958 12.0839 18.3863 13.6393 17.0906 14.1753L16.5376 14.4018C16.2733 14.5076 16.0927 14.7567 16.0707 15.0361L16.0227 15.6326C15.9122 17.0143 14.5777 17.9807 13.2135 17.656L12.6315 17.5126C12.3535 17.4522 12.061 17.5428 11.8752 17.7617L11.4867 18.2072C10.5749 19.2643 8.92582 19.2643 8.01329 18.2072L7.62482 17.7617C7.43896 17.5428 7.14722 17.4522 6.86844 17.5126L6.28649 17.656C4.92227 17.9807 3.58851 17.0143 3.4773 15.6326L3.42932 15.0361C3.40723 14.7567 3.2267 14.5076 2.96239 14.4018L2.41015 14.1753C1.11372 13.6393 0.604134 12.0839 1.3369 10.8985L1.64844 10.3926C1.7985 10.151 1.7985 9.84899 1.64844 9.60738L1.3369 9.10151C0.604134 7.91611 1.11372 6.36074 2.41015 5.82466L2.96239 5.59815C3.2267 5.49245 3.40723 5.24329 3.42932 4.96393L3.4773 4.36745C3.58851 2.98574 4.92227 2.0193 6.28649 2.34396L6.86844 2.48742C7.14722 2.54782 7.43896 2.45721 7.62482 2.23826L8.01329 1.79279ZM10.3291 2.77445C10.0252 2.41958 9.47521 2.41958 9.17129 2.77445L8.78206 3.21992C8.22525 3.86925 7.34852 4.14861 6.51369 3.9523L5.9325 3.8164C5.47776 3.71069 5.03292 4.02781 4.9956 4.48838L4.94837 5.0773C4.88058 5.93049 4.339 6.67042 3.54606 6.99509L2.99382 7.2216C2.56193 7.39526 2.39207 7.91623 2.63658 8.30885L2.94812 8.81472C3.39601 9.5471 3.39601 10.4531 2.94812 11.1855L2.63658 11.6914C2.39207 12.084 2.56193 12.605 2.99382 12.7786L3.54606 13.0052C4.339 13.3298 4.88058 14.0698 4.94837 14.9229L4.9956 15.5119C5.03292 15.9724 5.47776 16.2896 5.9325 16.1838L6.51369 16.0479C7.34852 15.8516 8.22525 16.131 8.78206 16.7803L9.17129 17.2258C9.47521 17.5807 10.0252 17.5807 10.3291 17.2258L10.7183 16.7803C11.2759 16.131 12.1519 15.8516 12.9867 16.0479L13.5679 16.1838C14.0226 16.2896 14.4675 15.9724 14.5048 15.5119L14.552 14.9229C14.6198 14.0698 15.1614 13.3298 15.9543 13.0052L16.5066 12.7786C16.9385 12.605 17.1083 12.084 16.8638 11.6914L16.5523 11.1855C16.1044 10.4531 16.1044 9.5471 16.5523 8.81472L16.8638 8.30885C17.1083 7.91623 16.9385 7.39526 16.5066 7.2216L15.9543 6.99509C15.1614 6.67042 14.6198 5.93049 14.552 5.0773L14.5048 4.48838C14.4675 4.02781 14.0226 3.71069 13.5679 3.8164L12.9867 3.9523C12.1519 4.14861 11.2759 3.86925 10.7183 3.21992L10.3291 2.77445ZM8.76496 7.19887C9.06279 7.49334 9.06279 7.97656 8.76496 8.27102L8.00325 9.02606C7.70542 9.32052 7.22402 9.32052 6.92619 9.02606C6.62836 8.73159 6.62836 8.24837 6.92619 7.95391L7.6879 7.19887C7.98573 6.90441 8.46713 6.90441 8.76496 7.19887ZM12.5735 7.19887C12.8713 7.49334 12.8713 7.97656 12.5735 8.27102L8.00325 12.8012C7.70542 13.0957 7.22402 13.0957 6.92619 12.8012C6.62836 12.5068 6.62836 12.0235 6.92619 11.7291L11.4965 7.19887C11.7943 6.90441 12.2757 6.90441 12.5735 7.19887ZM12.5737 10.9738C12.8716 11.2682 12.8716 11.7515 12.5737 12.0459L11.812 12.801C11.5142 13.0954 11.0328 13.0954 10.735 12.801C10.4371 12.5065 10.4371 12.0233 10.735 11.7288L11.4967 10.9738C11.7945 10.6793 12.2759 10.6793 12.5737 10.9738Z" fill="#646ECB"/>
</svg>