<svg xmlns="http://www.w3.org/2000/svg" width="20" height="20" viewBox="0 0 20 20" fill="none">
<path d="M14.7873 2.34399C15.5912 1.51359 16.9196 1.50285 17.7369 2.32014C18.5318 3.11503 18.5466 4.39918 17.7702 5.21218L15.4547 7.63698C15.2732 7.82704 15.1824 7.92207 15.1265 8.03337C15.077 8.1319 15.0475 8.23927 15.0398 8.34927C15.0311 8.47352 15.0607 8.60156 15.1197 8.85763L16.5597 15.0973C16.6203 15.3601 16.6506 15.4915 16.6409 15.6187C16.6322 15.7312 16.6008 15.8408 16.5485 15.9408C16.4894 16.0538 16.394 16.1491 16.2033 16.3399L15.8943 16.6489C15.3892 17.154 15.1366 17.4065 14.8781 17.4523C14.6524 17.4922 14.4202 17.4374 14.2362 17.3007C14.0254 17.1442 13.9125 16.8054 13.6866 16.1277L12.0118 11.1033L9.22402 13.891C9.05761 14.0575 8.97441 14.1407 8.91875 14.2386C8.86945 14.3254 8.83614 14.4204 8.82041 14.519C8.80267 14.6303 8.81566 14.7472 8.84165 14.9811L8.99474 16.3589C9.02073 16.5928 9.03372 16.7098 9.01597 16.821C9.00025 16.9196 8.96694 17.0146 8.91764 17.1014C8.86198 17.1994 8.77878 17.2826 8.61237 17.449L8.44778 17.6136C8.05357 18.0078 7.85646 18.2049 7.63742 18.262C7.4453 18.312 7.24161 18.2919 7.06304 18.2051C6.85945 18.1062 6.70482 17.8742 6.39557 17.4104L5.08864 15.4499C5.03339 15.3671 5.00576 15.3256 4.97369 15.2881C4.9452 15.2547 4.91412 15.2236 4.88074 15.1951C4.84315 15.163 4.80171 15.1354 4.71884 15.0801L2.75844 13.7732C2.29456 13.464 2.06263 13.3093 1.96369 13.1057C1.87692 12.9272 1.85675 12.7235 1.90682 12.5314C1.9639 12.3123 2.16101 12.1152 2.55523 11.721L2.71981 11.5564C2.88622 11.39 2.96942 11.3068 3.0674 11.2512C3.15421 11.2018 3.24916 11.1685 3.34775 11.1528C3.45903 11.1351 3.57597 11.1481 3.80987 11.174L5.18769 11.3271C5.42158 11.3531 5.53853 11.3661 5.64981 11.3484C5.74839 11.3327 5.84335 11.2993 5.93015 11.25C6.02813 11.1944 6.11133 11.1112 6.27774 10.9448L9.06551 8.157L4.04111 6.4822C3.36342 6.25631 3.02457 6.14336 2.86808 5.9326C2.73143 5.74857 2.67661 5.51637 2.71654 5.29066C2.76226 5.03216 3.01482 4.7796 3.51994 4.27448L3.82891 3.96551C4.01966 3.77476 4.11503 3.67939 4.22802 3.62031C4.32803 3.56803 4.43762 3.5366 4.55014 3.52793C4.67727 3.51814 4.80869 3.54847 5.07153 3.60913L11.2875 5.04358C11.5458 5.10318 11.6749 5.13299 11.7996 5.12412C11.92 5.11556 12.0371 5.08095 12.1428 5.02269C12.2523 4.96234 12.3445 4.86712 12.5288 4.67667L14.7873 2.34399Z" stroke="#1D1E21" stroke-width="1.3" stroke-linecap="round" stroke-linejoin="round"/>
</svg>