<svg xmlns="http://www.w3.org/2000/svg" width="20" height="20" viewBox="0 0 20 20" fill="none">
<path fill-rule="evenodd" clip-rule="evenodd" d="M13.0193 7.01456L9.31805 10.7039C8.73363 11.2864 7.85701 11.2864 7.37 10.7039L5.32454 8.56796C4.74013 7.98544 4.74013 7.11165 5.32454 6.62621L9.02584 2.93689C9.61026 2.35437 10.4869 2.35437 10.9739 2.93689L13.1167 5.07282C13.6038 5.55825 13.6038 6.43204 13.0193 7.01456Z" fill="white" stroke="#1D1E21" stroke-width="1.21557"/>
<path d="M14.6756 8.95629L10.0003 11.6747C9.3185 12.0631 8.53928 11.7718 8.14967 11.0922L6.68863 8.66503C6.29902 7.98542 6.59123 7.20872 7.17564 6.82037L11.851 4.10192C12.5328 3.71357 13.4094 4.00483 13.7016 4.68444L15.1627 7.11163C15.5523 7.79124 15.3575 8.56794 14.6756 8.95629Z" fill="white" stroke="#1D1E21" stroke-width="1.21557"/>
<path d="M15.2597 17.5002H3.57143C2.98701 17.5002 2.5 17.0147 2.5 16.4322V8.17978C2.5 7.59725 2.98701 7.11182 3.57143 7.11182H15.1623C15.7468 7.11182 16.2338 7.59725 16.2338 8.17978V16.4322C16.3312 17.0147 15.8442 17.5002 15.2597 17.5002Z" fill="white" stroke="#1D1E21" stroke-width="1.21557"/>
<path d="M13.9935 13.6165H16.9156C17.3052 13.6165 17.5 13.3252 17.5 13.034V11.3835C17.5 10.9951 17.2078 10.7039 16.8182 10.7039H13.8961C13.1169 10.7039 12.4351 11.3835 12.4351 12.1602C12.5325 13.034 13.2143 13.6165 13.9935 13.6165Z" fill="white" stroke="#1D1E21" stroke-width="1.21557"/>
</svg>