<svg xmlns="http://www.w3.org/2000/svg" width="20" height="20" viewBox="0 0 20 20" fill="none">
<path d="M14.1665 12.0833V9.57866C14.1665 9.4291 14.1665 9.35431 14.1437 9.28829C14.1236 9.22991 14.0907 9.17673 14.0475 9.1326C13.9986 9.08271 13.9318 9.04927 13.798 8.98238L9.99984 7.08331M3.33317 7.91664V13.5888C3.33317 13.8987 3.33317 14.0537 3.38152 14.1894C3.42426 14.3093 3.49392 14.4179 3.58515 14.5067C3.68835 14.6072 3.82923 14.6718 4.11096 14.8009L9.4443 17.2454C9.64866 17.339 9.75084 17.3859 9.85729 17.4043C9.95162 17.4207 10.0481 17.4207 10.1424 17.4043C10.2488 17.3859 10.351 17.339 10.5554 17.2454L15.8887 14.8009C16.1704 14.6718 16.3113 14.6072 16.4145 14.5067C16.5058 14.4179 16.5754 14.3093 16.6182 14.1894C16.6665 14.0537 16.6665 13.8987 16.6665 13.5888V7.91664M1.6665 7.08331L9.7017 3.06571C9.81101 3.01105 9.86567 2.98372 9.923 2.97297C9.97378 2.96344 10.0259 2.96344 10.0767 2.97297C10.134 2.98372 10.1887 3.01105 10.298 3.06571L18.3332 7.08331L10.298 11.1009C10.1887 11.1556 10.134 11.1829 10.0767 11.1936C10.0259 11.2032 9.97378 11.2032 9.923 11.1936C9.86567 11.1829 9.81101 11.1556 9.7017 11.1009L1.6665 7.08331Z" stroke="#1D1E21" stroke-width="1.4" stroke-linecap="round" stroke-linejoin="round"/>
</svg>