<svg xmlns="http://www.w3.org/2000/svg" width="1em" height="1em" fill="none" viewBox="0 0 20 20"><path fill="#898989" d="M10 7.625c-1.287 0-2.375 1.088-2.375 2.375S8.713 12.375 10 12.375s2.375-1.088 2.375-2.375S11.287 7.625 10 7.625Z"></path><path fill="#898989" d="M16.333 4.458h-2.047l-2.143-2.143a.788.788 0 0 0-.56-.232H8.416a.789.789 0 0 0-.56.232L5.715 4.458H3.666c-.873 0-1.583.71-1.583 1.584v8.708c0 .873.71 1.583 1.583 1.583h12.667c.873 0 1.583-.71 1.583-1.583V6.042c0-.873-.71-1.584-1.583-1.584ZM10 13.958c-2.146 0-3.959-1.813-3.959-3.958 0-2.145 1.813-3.958 3.959-3.958 2.145 0 3.958 1.813 3.958 3.958 0 2.146-1.813 3.958-3.958 3.958Z"></path></svg>