<svg xmlns="http://www.w3.org/2000/svg" width="20" height="18" fill="none" viewBox="0 0 20 18"><path fill="currentColor" d="M8.542 4.26H5.667c-1.4 0-2.1 0-2.635.239-.47.21-.853.544-1.093.956-.272.468-.272 1.08-.272 2.305v.875c0 .68 0 1.02.127 1.288.169.357.493.64.902.789.306.11.694.11 1.471.11v3.1c0 .17 0 .254.008.325.078.693.704 1.24 1.495 1.309.082.007.179.007.372.007s.29 0 .372-.008c.791-.068 1.417-.615 1.495-1.308a3.21 3.21 0 0 0 .008-.325v-3.1h.625c1.472 0 3.273.691 4.662 1.354.81.387 1.216.58 1.481.551a.814.814 0 0 0 .576-.3c.156-.19.156-.57.156-1.332V3.988c0-.762 0-1.142-.156-1.333a.814.814 0 0 0-.576-.299c-.265-.028-.67.165-1.481.551-1.39.663-3.19 1.353-4.662 1.353Z"></path><path stroke="currentColor" stroke-linecap="round" stroke-linejoin="round" stroke-width="2" d="M18.333 6.083V9"></path></svg>