<svg version="1.0" id="Layer_1" xmlns="http://www.w3.org/2000/svg" xmlns:xlink="http://www.w3.org/1999/xlink" viewBox="0 0 64 64" enable-background="new 0 0 64 64" width="28px" height="28px"><g id="SVGRepo_bgCarrier" stroke-width="0"></g><g id="SVGRepo_tracerCarrier" stroke-linecap="round" stroke-linejoin="round"></g><g id="SVGRepo_iconCarrier"> <g> <path fill="#646ECB" d="M0,32v20c0,2.211,1.789,4,4,4h56c2.211,0,4-1.789,4-4V32H0z M24,44h-8c-2.211,0-4-1.789-4-4s1.789-4,4-4h8 c2.211,0,4,1.789,4,4S26.211,44,24,44z"></path> <path fill="#646ECB" d="M64,24V12c0-2.211-1.789-4-4-4H4c-2.211,0-4,1.789-4,4v12H64z"></path> </g> </g></svg>