<svg fill="#646ECB" version="1.1" id="Layer_1" xmlns="http://www.w3.org/2000/svg" xmlns:xlink="http://www.w3.org/1999/xlink" viewBox="0 0 210 256" enable-background="new 0 0 210 256" xml:space="preserve" width="28px" height="28px"><g id="SVGRepo_bgCarrier" stroke-width="0"></g><g id="SVGRepo_tracerCarrier" stroke-linecap="round" stroke-linejoin="round"></g><g id="SVGRepo_iconCarrier"> <path d="M174.55,144.5L174.55,144.5c-1.4-4-5-6.5-9.2-6.5H159V23c0-11.708-9.292-21-21-21H25C12.57,2,2,12.57,2,25v183 c0,11.9,10.95,22,22.75,22l114.213,0c1.207,0,2.27,0.984,2.18,2.188c-0.095,1.266-1.153,1.812-2.393,1.812h-45.5L128,254h80 L174.55,144.5z M82.05,220.2c-3.199,0-5.599-2.399-5.6-5.598c-0.001-3.045,2.557-5.602,5.602-5.602 c3.199,0.001,5.598,2.401,5.598,5.6C87.55,217.8,85.25,220.2,82.05,220.2z M144,138h-19.65c-5.3,0-9.8,4.7-9.8,10l0,0 c0,5.3,4.5,10,9.8,10h19.8v42H18V31h126V138z M124.781,87.87c-1.26,0-6.743,0-6.743,0c-0.926-3.631-2.705-7.077-5.187-10.152 l6.077-14.191c0.408-0.963-0.148-2.038-1.149-2.26c-8.93-1.89-15.265,2.594-17.155,6.669c-1.89-1-3.89-1.853-6.002-2.594 c-2.445,8.892-10.597,15.414-20.193,15.414c-9.152,0-16.933-5.928-19.749-14.117h-0.111c-12.486,5.521-20.86,15.599-20.86,27.159 c0,8.967,5.076,17.081,13.153,22.861v10.856c0,1.482,1.223,2.705,2.705,2.705h9.893c1.482,0,2.705-1.223,2.705-2.705v-3.89 c4.409,1.149,9.152,1.778,14.117,1.778c4.52,0,8.892-0.519,12.968-1.482v3.594c0,1.482,1.223,2.705,2.705,2.705h9.856 c1.482,0,2.705-1.223,2.705-2.705v-10.078c3.335-2.223,6.225-4.78,8.485-7.67c0,0,10.486,0,11.449,0c0.926,0,2.26-0.333,2.26-2.038 c0-5.002,0-17.488,0-18.341C126.708,88.315,126.004,87.87,124.781,87.87z M73.983,76.384c9.485,0.296,17.266-7.373,17.118-16.859 c-0.148-8.892-7.41-16.155-16.303-16.303c-9.374-0.148-16.896,7.447-16.822,16.785C58.051,68.863,65.165,76.125,73.983,76.384z M73.501,61.304c-3.038-1.075-4.928-2.594-4.928-5.335c0-2.52,1.667-4.483,4.743-5.113v-2.742h2.297v2.594 c1.927,0,3.298,0.371,4.298,0.926l-0.926,3.261c-0.741-0.333-2.001-0.852-3.668-0.852s-2.594,0.815-2.594,1.667 c0,1.149,1.075,1.593,3.372,2.52c3.149,1.149,4.594,2.742,4.594,5.335s-1.556,4.594-4.928,5.335v2.594h-2.297v-2.52 c-1.964,0-3.965-0.519-4.928-1.075l0.852-3.372c1.037,0.519,2.705,1.149,4.483,1.149c1.89,0,2.816-0.815,2.816-1.964 S75.799,62.082,73.501,61.304z"></path> </g></svg>