<svg xmlns="http://www.w3.org/2000/svg" xmlns:xlink="http://www.w3.org/1999/xlink" version="1.1" viewBox="0 0 66 66" width="28px" height="28px" fill="#646ECB"><path d="M60.41,51.13h-6.57v3.4h6.23c0.85,0,1.53,0.69,1.53,1.53v9.34H65v-9.67C65,53.19,62.94,51.13,60.41,51.13z"></path><path d="M34.26,19.92c5.34,0,9.66-4.32,9.66-9.66c0-5.34-4.32-9.66-9.66-9.66s-9.66,4.32-9.66,9.66  C24.6,15.6,28.92,19.92,34.26,19.92z"></path><polygon points="28.48,23.85 34.26,31.68 40.04,23.85 "></polygon><path d="M54.52,49.13h5.89c0.48,0,0.95,0.06,1.41,0.15c1-1.41,1.12-3.35,0.14-4.91L51.84,28.18c-1.68-2.69-4.62-4.32-7.79-4.32  h-1.52l-7.27,9.84v31.22h11.37v-28.4l7.84,12.55C54.48,49.09,54.5,49.11,54.52,49.13z"></path><path d="M22.33,23.85c-4.23,0-7.65,3.43-7.65,7.65v12.98c4.59,1.61,7.9,5.98,7.9,11.12c0,3.72-1.73,7.03-4.43,9.2  c0.3,0.07,0.62,0.1,0.94,0.1c2.45,0,4.42-1.97,4.42-4.41v4.41h9.75V33.69l-7.26-9.84H22.33z"></path><path d="M10.79,45.82C5.38,45.82,1,50.2,1,55.61s4.38,9.79,9.79,9.79s9.79-4.38,9.79-9.79S16.2,45.82,10.79,45.82z M10.79,54.61  c1.89,0,3.43,1.54,3.43,3.43c0,1.54-1.03,2.83-2.43,3.26v0.6c0,0.55-0.45,1-1,1s-1-0.45-1-1v-0.6c-1.4-0.43-2.43-1.72-2.43-3.26  c0-0.55,0.45-1,1-1s1,0.45,1,1c0,0.79,0.64,1.43,1.43,1.43s1.43-0.64,1.43-1.43s-0.64-1.43-1.43-1.43c-1.89,0-3.43-1.54-3.43-3.43  c0-1.54,1.03-2.83,2.43-3.26v-0.6c0-0.55,0.45-1,1-1s1,0.45,1,1v0.6c1.4,0.43,2.43,1.72,2.43,3.26c0,0.55-0.45,1-1,1s-1-0.45-1-1  c0-0.79-0.64-1.43-1.43-1.43s-1.43,0.64-1.43,1.43C9.36,53.97,10,54.61,10.79,54.61z"></path></svg>