<svg xmlns="http://www.w3.org/2000/svg" version="1.0" preserveAspectRatio="xMidYMid meet" viewBox="232.66 339.57 857.44 187.26" width="200px"><g transform="translate(0.000000,870.000000) scale(0.100000,-0.100000)" fill="#000000" stroke="none"><path d="M2938 5300 c-84 -10 -154 -32 -238 -76 -258 -134 -401 -404 -369 -695 19 -163 85 -297 210 -421 62 -62 95 -85 170 -122 208 -100 409 -100 614 -1 177 86 296 221 361 410 25 71 28 94 28 210 0 113 -3 140 -26 207 -14 42 -42 107 -63 145 -51 92 -178 216 -272 266 -121 64 -278 93 -415 77z m213 -206 c148 -44 261 -137 323 -266 197 -409 -208 -851 -633 -689 -279 106 -402 433 -265 703 35 68 131 167 196 203 118 64 264 83 379 49z" fill="#646ECB"></path><path d="M4985 4760 c-146 -23 -225 -108 -225 -243 0 -54 5 -70 30 -109 35 -53 87 -83 223 -128 106 -35 131 -56 125 -107 -2 -23 -11 -30 -43 -41 -78 -26 -191 8 -274 83 -21 19 -43 35 -49 35 -6 0 -22 -37 -36 -82 l-26 -83 28 -23 c137 -116 383 -144 510 -58 116 78 137 265 41 353 -35 31 -113 68 -199 93 -113 32 -150 85 -92 130 44 35 128 25 217 -25 39 -22 73 -41 77 -43 4 -2 16 27 28 65 11 37 23 75 25 84 8 24 -109 78 -203 95 -85 15 -86 15 -157 4z"></path><path d="M5763 4756 c-235 -76 -349 -356 -237 -579 132 -259 517 -292 689 -59 156 212 83 511 -153 620 -47 22 -74 27 -157 29 -65 2 -115 -2 -142 -11z m210 -180 c78 -32 135 -149 122 -247 -19 -135 -159 -224 -276 -175 -44 19 -96 70 -116 115 -24 54 -21 157 5 208 22 43 68 84 112 102 36 14 116 13 153 -3z"></path><path d="M7503 4756 c-152 -49 -266 -194 -280 -353 -14 -175 68 -323 223 -400 64 -31 87 -37 160 -41 73 -4 97 -1 170 23 46 15 102 41 124 56 l40 29 -2 168 -3 167 -135 0 -135 0 -3 -82 -3 -83 51 0 50 0 0 -34 c0 -32 -3 -35 -47 -50 -134 -46 -253 21 -284 160 -33 147 64 273 211 274 58 0 143 -32 169 -63 7 -10 19 -17 25 -17 12 1 106 121 106 137 0 14 -64 57 -135 90 -51 23 -76 28 -160 30 -65 2 -115 -2 -142 -11z"></path><path d="M8074 4745 c-3 -8 -4 -133 -2 -278 l3 -264 35 -69 c61 -119 171 -179 315 -172 131 7 221 65 274 177 26 56 26 58 29 339 l3 282 -95 0 -96 0 0 -242 c0 -134 -5 -259 -10 -279 -33 -117 -187 -133 -240 -24 -18 38 -20 61 -20 293 l0 252 -95 0 c-75 0 -97 -3 -101 -15z"></path><path d="M6455 4728 c-3 -13 -4 -189 -3 -393 l3 -370 95 0 95 0 3 123 3 123 56 -3 56 -3 56 -122 55 -123 103 0 c56 0 104 4 108 10 6 9 -49 126 -105 220 -17 29 -30 53 -28 54 38 22 84 67 105 104 24 41 28 58 28 127 0 70 -4 87 -29 133 -36 64 -81 99 -158 123 -49 16 -93 19 -249 19 -187 0 -189 0 -194 -22z m379 -162 c41 -17 66 -51 66 -91 0 -68 -50 -95 -177 -95 l-73 0 0 100 0 100 75 0 c42 0 90 -6 109 -14z"></path><path d="M8865 4738 c-3 -7 -4 -184 -3 -393 l3 -380 248 -3 248 -2 -3 87 -3 88 -147 3 -148 3 -2 302 -3 302 -93 3 c-68 2 -94 -1 -97 -10z"></path><path d="M9648 4373 c-81 -208 -148 -385 -150 -393 -2 -12 14 -16 94 -18 l96 -3 23 61 24 60 132 0 c72 0 137 2 145 5 9 3 21 -16 38 -58 l25 -62 103 -3 c72 -2 102 1 102 9 0 6 -66 184 -147 395 l-146 384 -97 0 -96 0 -146 -377z m243 -131 c-46 -2 -88 1 -92 5 -4 4 14 66 39 137 l46 129 45 -134 46 -134 -84 -3z"></path><path d="M10327 4743 c-4 -3 -7 -42 -7 -85 l0 -78 95 0 95 0 2 -307 3 -308 95 0 95 0 3 308 2 307 96 0 95 0 -3 83 -3 82 -281 3 c-154 1 -283 -1 -287 -5z"></path><path d="M3627 4052 l-67 -67 273 -272 c179 -179 281 -274 300 -279 63 -15 125 45 113 110 -5 24 -68 93 -279 304 l-272 272 -68 -68z" fill="#646ECB"></path></g></svg>