<svg xmlns="http://www.w3.org/2000/svg" width="239" height="63" viewBox="0 0 239 63" fill="none">
<path d="M8.45 51C7.35 51 6.33333 50.7333 5.4 50.2C4.5 49.6333 3.76667 48.9 3.2 48C2.66667 47.0667 2.4 46.05 2.4 44.95V44.55H6.5V44.95C6.5 45.4833 6.68333 45.95 7.05 46.35C7.45 46.7167 7.91667 46.9 8.45 46.9H25.85C26.3833 46.9 26.8333 46.7167 27.2 46.35C27.6 45.95 27.8 45.4833 27.8 44.95V40.5C27.8 39.9667 27.6 39.5167 27.2 39.15C26.8333 38.75 26.3833 38.55 25.85 38.55H8.45C7.35 38.55 6.33333 38.2833 5.4 37.75C4.5 37.1833 3.76667 36.45 3.2 35.55C2.66667 34.6167 2.4 33.6 2.4 32.5V28.05C2.4 26.95 2.66667 25.95 3.2 25.05C3.76667 24.1167 4.5 23.3833 5.4 22.85C6.33333 22.2833 7.35 22 8.45 22H25.85C26.9833 22 28 22.2833 28.9 22.85C29.8333 23.3833 30.5667 24.1167 31.1 25.05C31.6667 25.95 31.95 26.95 31.95 28.05V28.45H27.8V28.05C27.8 27.5167 27.6 27.0667 27.2 26.7C26.8333 26.3 26.3833 26.1 25.85 26.1H8.45C7.91667 26.1 7.45 26.3 7.05 26.7C6.68333 27.0667 6.5 27.5167 6.5 28.05V32.5C6.5 33.0333 6.68333 33.5 7.05 33.9C7.45 34.2667 7.91667 34.45 8.45 34.45H25.85C26.9833 34.45 28 34.7333 28.9 35.3C29.8333 35.8333 30.5667 36.5667 31.1 37.5C31.6667 38.4 31.95 39.4 31.95 40.5V44.95C31.95 46.05 31.6667 47.0667 31.1 48C30.5667 48.9 29.8333 49.6333 28.9 50.2C28 50.7333 26.9833 51 25.85 51H8.45ZM77.7465 51V28.05C77.7465 26.95 78.0132 25.95 78.5465 25.05C79.1132 24.1167 79.8465 23.3833 80.7465 22.85C81.6798 22.2833 82.6965 22 83.7965 22H100.096V26.1H83.7965C83.2632 26.1 82.7965 26.3 82.3965 26.7C82.0298 27.0667 81.8465 27.5167 81.8465 28.05V51H77.7465Z" fill="#646ECB"/>
<path d="M108.132 62.45V58.3H126.232C126.766 58.3 127.216 58.1 127.582 57.7C127.982 57.3333 128.182 56.8833 128.182 56.35V51H108.832C107.732 51 106.716 50.7333 105.782 50.2C104.882 49.6333 104.149 48.9 103.582 48C103.049 47.0667 102.782 46.05 102.782 44.95V28.05C102.782 26.95 103.049 25.95 103.582 25.05C104.149 24.1167 104.882 23.3833 105.782 22.85C106.716 22.2833 107.732 22 108.832 22H126.232C127.366 22 128.382 22.2833 129.282 22.85C130.216 23.3833 130.949 24.1167 131.482 25.05C132.016 25.95 132.282 26.95 132.282 28.05V56.35C132.282 57.4833 132.016 58.5 131.482 59.4C130.949 60.3333 130.216 61.0667 129.282 61.6C128.382 62.1667 127.366 62.45 126.232 62.45H108.132ZM108.832 46.9H126.232C126.766 46.9 127.216 46.7167 127.582 46.35C127.982 45.95 128.182 45.4833 128.182 44.95V28.05C128.182 27.5167 127.982 27.0667 127.582 26.7C127.216 26.3 126.766 26.1 126.232 26.1H108.832C108.299 26.1 107.832 26.3 107.432 26.7C107.066 27.0667 106.882 27.5167 106.882 28.05V44.95C106.882 45.4833 107.066 45.95 107.432 46.35C107.832 46.7167 108.299 46.9 108.832 46.9ZM142.294 51C141.194 51 140.177 50.7333 139.244 50.2C138.344 49.6333 137.61 48.9 137.044 48C136.51 47.0667 136.244 46.05 136.244 44.95V22H140.344V44.95C140.344 45.4833 140.527 45.95 140.894 46.35C141.294 46.7167 141.76 46.9 142.294 46.9H159.694C160.227 46.9 160.694 46.7167 161.094 46.35C161.494 45.95 161.694 45.4833 161.694 44.95V22H165.794V44.95C165.794 46.05 165.51 47.0667 164.944 48C164.41 48.9 163.677 49.6333 162.744 50.2C161.844 50.7333 160.827 51 159.694 51H142.294ZM177.009 51C175.909 51 174.893 50.7333 173.959 50.2C173.059 49.6333 172.326 48.9 171.759 48C171.226 47.0667 170.959 46.05 170.959 44.95V12.5H175.059V44.95C175.059 45.4833 175.243 45.95 175.609 46.35C176.009 46.7167 176.476 46.9 177.009 46.9H181.909V51H177.009ZM191.609 51C190.509 51 189.492 50.7333 188.559 50.2C187.659 49.6333 186.926 48.9 186.359 48C185.826 47.0667 185.559 46.05 185.559 44.95V34.45H210.959V28.05C210.959 27.5167 210.759 27.0667 210.359 26.7C209.992 26.3 209.542 26.1 209.009 26.1H185.559V22H209.009C210.142 22 211.159 22.2833 212.059 22.85C212.992 23.3833 213.726 24.1167 214.259 25.05C214.826 25.95 215.109 26.95 215.109 28.05V51H191.609ZM191.609 46.9H210.959V38.55H189.659V44.95C189.659 45.4833 189.842 45.95 190.209 46.35C190.609 46.7167 191.076 46.9 191.609 46.9ZM226.376 51C225.242 51 224.209 50.7333 223.276 50.2C222.376 49.6333 221.659 48.9 221.126 48C220.592 47.0667 220.326 46.05 220.326 44.95V12.5H224.426V22H236.976V26.1H224.426V44.95C224.426 45.4833 224.609 45.95 224.976 46.35C225.376 46.7167 225.842 46.9 226.376 46.9H236.976V51H226.376Z" fill="white"/>
<path fill-rule="evenodd" clip-rule="evenodd" d="M67.7717 38.2727C67.4407 38.2727 67.1232 38.1411 66.8892 37.9071C66.6549 37.6728 66.5233 37.3556 66.5233 37.0246C66.5198 33.9754 65.307 31.052 63.151 28.8959C60.9951 26.7398 58.0718 25.5269 55.0228 25.5237C54.5823 25.5154 54.1787 25.2757 53.9607 24.8925C53.7431 24.5097 53.7431 24.0405 53.9607 23.6576C54.1787 23.2748 54.5823 23.0351 55.0228 23.0267C58.7337 23.0309 62.2917 24.5068 64.9153 27.131C67.5392 29.7554 69.0154 33.3132 69.0196 37.0248C69.0196 37.3558 68.8881 37.6733 68.6541 37.9076C68.4198 38.1419 68.1023 38.2735 67.7714 38.2735L67.7717 38.2727ZM37.5443 37.0247C37.5443 40.4819 38.5692 43.8615 40.4896 46.7366C42.4103 49.6113 45.14 51.852 48.3339 53.1749C51.5279 54.4981 55.0424 54.8442 58.433 54.1698C61.8239 53.4953 64.9385 51.8305 67.3832 49.386C69.8276 46.9415 71.4923 43.8266 72.1667 40.4353C72.8411 37.0446 72.4951 33.5299 71.1719 30.3358C69.849 27.1416 67.6085 24.4118 64.7339 22.491C61.8593 20.5704 58.48 19.5456 55.0225 19.5456C50.3884 19.551 45.9461 21.3944 42.6693 24.6712C39.3927 27.948 37.5494 32.3905 37.5439 37.025L37.5443 37.0247ZM69.9955 50.2323C73.4331 46.3358 75.2191 41.2546 74.9758 36.0635C74.7323 30.8732 72.4786 25.9811 68.6915 22.4232C64.9044 18.8653 59.8814 16.9214 54.6865 17.0024C49.4913 17.0837 44.5317 19.1839 40.8576 22.8579C37.1837 26.5322 35.0837 31.4923 35.0024 36.6875C34.9215 41.8832 36.8652 46.9058 40.4229 50.6932C43.9805 54.4806 48.8725 56.7344 54.0625 56.9779C59.2528 57.2212 64.3344 55.4351 68.2306 51.9973L72.8679 56.6338C73.1832 56.9494 73.6431 57.073 74.0739 56.9574C74.5051 56.8422 74.8418 56.5058 74.9573 56.0749C75.0729 55.6437 74.95 55.1841 74.6347 54.8684L69.9955 50.2323Z" fill="#646ECB"/>
</svg>