<svg xmlns="http://www.w3.org/2000/svg" width="252" height="63" viewBox="0 0 252 63" fill="none">
<path d="M8.45 51C7.35 51 6.33333 50.7333 5.4 50.2C4.5 49.6333 3.76667 48.9 3.2 48C2.66667 47.0667 2.4 46.05 2.4 44.95V44.55H6.5V44.95C6.5 45.4833 6.68333 45.95 7.05 46.35C7.45 46.7167 7.91667 46.9 8.45 46.9H25.85C26.3833 46.9 26.8333 46.7167 27.2 46.35C27.6 45.95 27.8 45.4833 27.8 44.95V40.5C27.8 39.9667 27.6 39.5167 27.2 39.15C26.8333 38.75 26.3833 38.55 25.85 38.55H8.45C7.35 38.55 6.33333 38.2833 5.4 37.75C4.5 37.1833 3.76667 36.45 3.2 35.55C2.66667 34.6167 2.4 33.6 2.4 32.5V28.05C2.4 26.95 2.66667 25.95 3.2 25.05C3.76667 24.1167 4.5 23.3833 5.4 22.85C6.33333 22.2833 7.35 22 8.45 22H25.85C26.9833 22 28 22.2833 28.9 22.85C29.8333 23.3833 30.5667 24.1167 31.1 25.05C31.6667 25.95 31.95 26.95 31.95 28.05V28.45H27.8V28.05C27.8 27.5167 27.6 27.0667 27.2 26.7C26.8333 26.3 26.3833 26.1 25.85 26.1H8.45C7.91667 26.1 7.45 26.3 7.05 26.7C6.68333 27.0667 6.5 27.5167 6.5 28.05V32.5C6.5 33.0333 6.68333 33.5 7.05 33.9C7.45 34.2667 7.91667 34.45 8.45 34.45H25.85C26.9833 34.45 28 34.7333 28.9 35.3C29.8333 35.8333 30.5667 36.5667 31.1 37.5C31.6667 38.4 31.95 39.4 31.95 40.5V44.95C31.95 46.05 31.6667 47.0667 31.1 48C30.5667 48.9 29.8333 49.6333 28.9 50.2C28 50.7333 26.9833 51 25.85 51H8.45ZM91.3695 51V28.05C91.3695 26.95 91.6362 25.95 92.1695 25.05C92.7362 24.1167 93.4695 23.3833 94.3695 22.85C95.3029 22.2833 96.3195 22 97.4195 22H113.72V26.1H97.4195C96.8862 26.1 96.4195 26.3 96.0195 26.7C95.6529 27.0667 95.4695 27.5167 95.4695 28.05V51H91.3695ZM121.755 62.45V58.3H139.855C140.389 58.3 140.839 58.1 141.205 57.7C141.605 57.3333 141.805 56.8833 141.805 56.35V51H122.455C121.355 51 120.339 50.7333 119.405 50.2C118.505 49.6333 117.772 48.9 117.205 48C116.672 47.0667 116.405 46.05 116.405 44.95V28.05C116.405 26.95 116.672 25.95 117.205 25.05C117.772 24.1167 118.505 23.3833 119.405 22.85C120.339 22.2833 121.355 22 122.455 22H139.855C140.989 22 142.005 22.2833 142.905 22.85C143.839 23.3833 144.572 24.1167 145.105 25.05C145.639 25.95 145.905 26.95 145.905 28.05V56.35C145.905 57.4833 145.639 58.5 145.105 59.4C144.572 60.3333 143.839 61.0667 142.905 61.6C142.005 62.1667 140.989 62.45 139.855 62.45H121.755ZM122.455 46.9H139.855C140.389 46.9 140.839 46.7167 141.205 46.35C141.605 45.95 141.805 45.4833 141.805 44.95V28.05C141.805 27.5167 141.605 27.0667 141.205 26.7C140.839 26.3 140.389 26.1 139.855 26.1H122.455C121.922 26.1 121.455 26.3 121.055 26.7C120.689 27.0667 120.505 27.5167 120.505 28.05V44.95C120.505 45.4833 120.689 45.95 121.055 46.35C121.455 46.7167 121.922 46.9 122.455 46.9ZM155.917 51C154.817 51 153.8 50.7333 152.867 50.2C151.967 49.6333 151.233 48.9 150.667 48C150.133 47.0667 149.867 46.05 149.867 44.95V22H153.967V44.95C153.967 45.4833 154.15 45.95 154.517 46.35C154.917 46.7167 155.383 46.9 155.917 46.9H173.317C173.85 46.9 174.317 46.7167 174.717 46.35C175.117 45.95 175.317 45.4833 175.317 44.95V22H179.417V44.95C179.417 46.05 179.133 47.0667 178.567 48C178.033 48.9 177.3 49.6333 176.367 50.2C175.467 50.7333 174.45 51 173.317 51H155.917ZM190.632 51C189.532 51 188.516 50.7333 187.582 50.2C186.682 49.6333 185.949 48.9 185.382 48C184.849 47.0667 184.582 46.05 184.582 44.95V12.5H188.682V44.95C188.682 45.4833 188.866 45.95 189.232 46.35C189.632 46.7167 190.099 46.9 190.632 46.9H195.532V51H190.632ZM205.232 51C204.132 51 203.115 50.7333 202.182 50.2C201.282 49.6333 200.549 48.9 199.982 48C199.449 47.0667 199.182 46.05 199.182 44.95V34.45H224.582V28.05C224.582 27.5167 224.382 27.0667 223.982 26.7C223.615 26.3 223.165 26.1 222.632 26.1H199.182V22H222.632C223.765 22 224.782 22.2833 225.682 22.85C226.615 23.3833 227.349 24.1167 227.882 25.05C228.449 25.95 228.732 26.95 228.732 28.05V51H205.232ZM205.232 46.9H224.582V38.55H203.282V44.95C203.282 45.4833 203.465 45.95 203.832 46.35C204.232 46.7167 204.699 46.9 205.232 46.9ZM239.999 51C238.865 51 237.832 50.7333 236.899 50.2C235.999 49.6333 235.282 48.9 234.749 48C234.215 47.0667 233.949 46.05 233.949 44.95V12.5H238.049V22H250.599V26.1H238.049V44.95C238.049 45.4833 238.232 45.95 238.599 46.35C238.999 46.7167 239.465 46.9 239.999 46.9H250.599V51H239.999Z" fill="white"/>
<path fill-rule="evenodd" clip-rule="evenodd" d="M75.4103 39.3363C75.0627 39.3363 74.7294 39.1982 74.4836 38.9525C74.2376 38.7065 74.0995 38.3734 74.0995 38.0258C74.0958 34.8242 72.8224 31.7546 70.5586 29.4907C68.2948 27.2268 65.2254 25.9533 62.0239 25.9499C61.5614 25.9412 61.1376 25.6895 60.9088 25.2872C60.6802 24.8852 60.6802 24.3925 60.9088 23.9905C61.1376 23.5885 61.5614 23.3368 62.0239 23.3281C65.9204 23.3324 69.6562 24.8821 72.411 27.6375C75.1662 30.3931 76.7162 34.1288 76.7206 38.0261C76.7206 38.3736 76.5825 38.707 76.3368 38.953C76.0908 39.199 75.7574 39.3371 75.4099 39.3371L75.4103 39.3363ZM43.6715 38.0259C43.6715 41.656 44.7476 45.2046 46.7641 48.2234C48.7808 51.2419 51.647 53.5946 55.0006 54.9837C58.3543 56.373 62.0445 56.7364 65.6046 56.0283C69.1651 55.3201 72.4355 53.5721 75.0023 51.0053C77.569 48.4385 79.3169 45.168 80.0251 41.6071C80.7332 38.0468 80.3699 34.3564 78.9805 31.0026C77.5914 27.6487 75.239 24.7824 72.2206 22.7656C69.2023 20.7489 65.654 19.6728 62.0236 19.6728C57.1578 19.6785 52.4934 21.6141 49.0528 25.0548C45.6124 28.4953 43.6769 33.16 43.6711 38.0262L43.6715 38.0259ZM77.7453 51.8939C81.3547 47.8026 83.2301 42.4673 82.9746 37.0166C82.7189 31.5668 80.3525 26.4302 76.3761 22.6943C72.3996 18.9586 67.1255 16.9175 61.6708 17.0026C56.2159 17.0879 51.0083 19.293 47.1504 23.1508C43.2929 27.0088 41.0879 32.2169 41.0026 37.6718C40.9175 43.1273 42.9585 48.4011 46.694 52.3779C50.4295 56.3546 55.5661 58.7211 61.0156 58.9768C66.4655 59.2322 71.8011 57.3568 75.8921 53.7472L80.7613 58.6155C81.0923 58.9469 81.5753 59.0766 82.0276 58.9553C82.4803 58.8343 82.8339 58.4811 82.9552 58.0286C83.0765 57.5759 82.9475 57.0933 82.6164 56.7619L77.7453 51.8939Z" fill="#646ECB"/>
</svg>