<svg xmlns="http://www.w3.org/2000/svg" viewBox="0 0 56 56"><path d="M31 56C17.469 56 6.5 43.464 6.5 28S17.469 0 31 0s24.5 12.536 24.5 28S44.531 56 31 56" fill="#ffd949"/><path d="M6.5 28C6.5 13.698 15.885 1.908 28 .216A21.729 21.729 0 0025 0C11.469 0 .5 12.536.5 28S11.469 56 25 56c1.016 0 2.016-.079 3-.216C15.885 54.092 6.5 42.302 6.5 28" fill="#f4bf1a"/><path d="M31.085 50.524h-.086c-.7 0-1.405-.042-2.095-.124a1 1 0 01-.875-1.112 1.007 1.007 0 011.112-.874c.612.073 1.237.11 1.858.11.553 0 1.043.448 1.043 1s-.403 1-.957 1m5.815-1.077a1 1 0 01-.353-1.936 16.443 16.443 0 001.706-.757.999.999 0 11.913 1.779c-.623.32-1.266.604-1.914.849a.983.983 0 01-.352.065m-13.535-.764a.993.993 0 01-.452-.109 19.065 19.065 0 01-1.809-1.048 1 1 0 111.096-1.673c.523.343 1.068.659 1.618.938a1 1 0 01-.453 1.892m20.11-3.558a1 1 0 01-.71-1.704c.435-.438.858-.91 1.257-1.402a1.001 1.001 0 011.552 1.262 21.266 21.266 0 01-1.389 1.548 1 1 0 01-.71.296m-26.218-1.408c-.289 0-.576-.125-.774-.365-.434-.53-.851-1.09-1.238-1.665a1 1 0 011.658-1.119 20.03 20.03 0 001.127 1.515 1.001 1.001 0 01-.773 1.634m30.614-5.137a1.001 1.001 0 01-.917-1.4c.251-.574.48-1.17.681-1.769a1.001 1.001 0 011.896.638c-.22.653-.47 1.303-.743 1.93a1.003 1.003 0 01-.917.601m-34.426-1.767c-.416 0-.805-.263-.947-.678a24.392 24.392 0 01-.583-1.983.998.998 0 01.728-1.211.998.998 0 011.212.728c.153.613.333 1.226.536 1.82a1 1 0 01-.946 1.324m36.315-5.897l-.078-.003a1.001 1.001 0 01-.92-1.075c.047-.606.071-1.225.071-1.838 0-.552.448-1.032 1-1.032s1 .415 1 .967V28c0 .665-.026 1.335-.077 1.993a1 1 0 01-.996.923m-37.594-1.905c-.552 0-1-.437-1-.989V28c0-.682.027-1.368.08-2.037a1 1 0 011.994.158c-.049.618-.074 1.25-.074 1.879a1.01 1.01 0 01-1 1.011m36.936-5.963a1 1 0 01-.968-.755 22.721 22.721 0 00-.54-1.821 1 1 0 011.892-.648c.222.646.419 1.312.587 1.979a1 1 0 01-.971 1.245m-35.67-1.817a1 1 0 01-.948-1.322c.221-.65.472-1.299.747-1.928a1 1 0 011.833.801 22.052 22.052 0 00-.685 1.769c-.143.417-.53.68-.947.68m32.47-5.393a.999.999 0 01-.829-.44 20.422 20.422 0 00-1.13-1.512 1 1 0 011.544-1.272c.435.529.853 1.088 1.242 1.663a1 1 0 01-.827 1.561m-28.674-1.521a.999.999 0 01-.773-1.633c.441-.54.909-1.06 1.391-1.545a1 1 0 011.419 1.41 19.5 19.5 0 00-1.262 1.401.993.993 0 01-.775.367m23.082-4.03a.99.99 0 01-.544-.162 17.01 17.01 0 00-1.622-.934 1 1 0 01.902-1.785c.618.311 1.227.662 1.811 1.043a1 1 0 01-.547 1.838m-16.981-.95a1 1 0 01-.455-1.891 18.483 18.483 0 011.916-.844 1 1 0 11.7 1.873c-.578.216-1.153.469-1.709.753a.99.99 0 01-.452.109m9.606-1.749a.918.918 0 01-.117-.007 15.809 15.809 0 00-1.819-.105c-.552 0-1.021-.448-1.021-1s.427-1 .979-1h.042c.682 0 1.372.04 2.05.119a.999.999 0 01-.114 1.993" fill="#f4bf1a"/><path d="M6.498 29H.5c.02.673.058 1.34.119 2h6.003a32.085 32.085 0 01-.124-2M6.727 24H.731a31.201 31.201 0 00-.184 2h5.999c.042-.673.098-1.341.181-2M7.048 34H1.047c.13.676.28 1.343.451 2h5.999a32.435 32.435 0 01-.449-2M8.447 39H2.443c.255.682.537 1.347.837 2h6.001c-.3-.652-.579-1.319-.834-2M7.772 19H1.779a30.4 30.4 0 00-.529 2h6.007c.152-.676.321-1.345.515-2M9.764 14h-6a29.34 29.34 0 00-.925 2h6.004c.284-.682.591-1.349.921-2M13.845 8H7.838a26.744 26.744 0 00-1.622 2h6.005a27.021 27.021 0 011.624-2M19.96 3h-6.013a24.048 24.048 0 00-2.936 2h6.009a24.092 24.092 0 012.94-2M11.519 45H5.516c.464.693.954 1.36 1.472 2h6.007a27.801 27.801 0 01-1.476-2M9.832 50a24.802 24.802 0 002.524 2h6.014a24.604 24.604 0 01-2.54-2H9.832z" fill="#dca815"/></svg>