<svg xmlns="http://www.w3.org/2000/svg" width="40" height="40" viewBox="0 0 40 40" fill="none">
<circle cx="20" cy="20" r="20" fill="#FFEC89"/>
<path d="M13.7457 8L13.2506 9.81947C13.0951 10.391 12.6064 10.8366 11.9816 10.9764L9.99247 11.4216L11.9792 11.8752C12.6032 12.0176 13.0897 12.465 13.2424 13.0372L13.7288 14.8588L14.2239 13.0394C14.3794 12.4678 14.8681 12.0223 15.4929 11.8825L17.482 11.4373L15.4951 10.9836C14.8711 10.8412 14.3848 10.3937 14.2321 9.82167L13.7457 8ZM20.5616 9.74419L20.3184 10.6383C20.2419 10.9192 20.0019 11.1381 19.695 11.2069L18.7175 11.4256L19.6938 11.6486C20.0005 11.7186 20.2395 11.9384 20.3147 12.2195L20.5535 13.1147L20.7969 12.2205C20.8734 11.9396 21.1134 11.7207 21.4203 11.6519L22.3977 11.4332L21.4214 11.2102C21.1147 11.1402 20.8757 10.9204 20.8005 10.6393L20.5615 9.74408L20.5616 9.74419ZM16.9699 14.3889C16.617 14.3889 16.3008 14.5886 16.1754 14.8907L14.0131 20.1023C13.9437 20.2693 13.9684 20.4568 14.0792 20.6039C14.19 20.7509 14.3726 20.8388 14.5676 20.8388H26.4327C26.6279 20.8388 26.8105 20.751 26.9212 20.6039C27.0319 20.4568 27.0566 20.2692 26.9873 20.1023L24.8247 14.8907C24.6993 14.5887 24.3833 14.389 24.0305 14.3889H16.9699ZM10.7931 14.724L10.493 15.8272C10.3987 16.1737 10.1024 16.4437 9.72367 16.5284L8.51767 16.7984L9.72223 17.0733C10.1006 17.1597 10.3954 17.431 10.488 17.7778L10.7828 18.8821L11.0832 17.7792C11.1775 17.4328 11.4735 17.1627 11.8522 17.0779L13.0582 16.8079L11.8537 16.5328C11.4753 16.4464 11.1805 16.1751 11.088 15.8283L10.7931 14.724ZM9.99571 21.5501C9.64279 21.5501 9.32659 21.7498 9.20119 22.0519L7.03867 27.2637C6.96943 27.4307 6.99415 27.6182 7.10503 27.7653C7.21579 27.9123 7.39843 28.0001 7.59355 28H19.4586C19.6537 28 19.8362 27.9123 19.9471 27.7653C20.0579 27.6182 20.0827 27.4307 20.0135 27.2637L17.8508 22.0519C17.7254 21.7498 17.4092 21.5501 17.0563 21.5501H9.99583H9.99571ZM23.9439 21.5501C23.591 21.5501 23.2748 21.7498 23.1494 22.0519L20.9871 27.2637C20.9179 27.4306 20.9426 27.6181 21.0534 27.7651C21.1641 27.9122 21.3467 28 21.5417 28H33.4068C33.6018 28 33.7844 27.9122 33.8951 27.7651C34.0058 27.6181 34.0306 27.4306 33.9613 27.2637L31.7989 22.0519C31.6735 21.7498 31.3573 21.5501 31.0044 21.5501H23.9438H23.9439Z" fill="#FFBF03"/>
</svg>